<svg xmlns:dc="http://purl.org/dc/elements/1.1/" xmlns:cc="http://creativecommons.org/ns#" xmlns:rdf="http://www.w3.org/1999/02/22-rdf-syntax-ns#" xmlns:svg="http://www.w3.org/2000/svg" xmlns="http://www.w3.org/2000/svg" xmlns:sodipodi="http://sodipodi.sourceforge.net/DTD/sodipodi-0.dtd" xmlns:inkscape="http://www.inkscape.org/namespaces/inkscape" version="1.1" x="0px" y="0px" viewBox="0 0 100 125"><g transform="translate(0,-952.36218)"><path style="text-indent:0;text-transform:none;direction:ltr;block-progression:tb;baseline-shift:baseline;color:#000000;enable-background:accumulate;" d="m 50.3125,967.37423 a 2.0002,2.0002 0 0 1 1.1875,0.65625 c 11.5408,12.88625 22.5,28.18225 22.5,42.78122 0,14.5283 -10.6507,26.5625 -24,26.5625 -13.3493,0 -24,-12.0342 -24,-26.5625 0,-14.59897 10.9594,-29.89497 22.5,-42.78122 a 2.0002,2.0002 0 0 1 1.8125,-0.65625 z M 50,972.49923 c -10.6708,12.243 -20,26.3702 -20,38.31247 0,12.5898 9.0627,22.5625 20,22.5625 10.9373,0 20,-9.9727 20,-22.5625 0,-11.94227 -9.329,-26.06947 -20,-38.31247 z m 14.2188,35.59367 a 2.0002,2.0002 0 0 1 1.9374,1.8438 c 0.5305,5.9153 -2.235,12.4347 -6.6874,15.6875 a 2.0002,2.0002 0 1 1 -2.3438,-3.2188 c 2.8357,-2.0716 5.4423,-7.858 5.0625,-12.0937 a 2.0002,2.0002 0 0 1 2.0313,-2.2188 z" fill="#000000" fill-opacity="1" stroke="none" marker="none" visibility="visible" display="inline" overflow="visible"/></g><text x="0" y="115" fill="#000000" font-size="5px" font-weight="bold" font-family="'Helvetica Neue', Helvetica, Arial-Unicode, Arial, Sans-serif">Created by Aybige</text><text x="0" y="120" fill="#000000" font-size="5px" font-weight="bold" font-family="'Helvetica Neue', Helvetica, Arial-Unicode, Arial, Sans-serif">from the Noun Project</text></svg>