<svg xmlns="http://www.w3.org/2000/svg" xmlns:xlink="http://www.w3.org/1999/xlink" version="1.1" x="0px" y="0px" viewBox="0 0 100 125" style="enable-background:new 0 0 100 100;" xml:space="preserve"><path d="M68.6692352,33.0507202c1.7042542-1.8272552,4.6092834-3.5958576,6.6404419-5.7736034  c0.4620056,12.2258587,8.4251251,22.6365108,4.7067871,35.2680206c0.5381393,0.0158691,3.1973495-4.7356453,3.9321976-6.9562263  c3.0470276,4.0467987,2.9770584,14.2661285-0.3469696,22.4243927  c-4.3252945,10.6156769-12.6088181,16.1736755-26.8491364,17.6150589  c9.4973831-4.1577606,16.333786-10.9208374,20.4571304-21.1829071c-2.9362411,0.4096756-5.315361,0.7416153-8.4667053,1.1813049  c6.2902985-9.1373291,5.8308563-18.4643402,3.5064621-28.4405899c-2.5396652,2.0943375-4.8264923,3.9801674-6.5820312,5.4278755  c-2.5883293-7.4594383-5.1287193-14.7807198-7.4765091-21.5469475  c-7.8533401,6.0726509-14.4542503,12.1107368-21.8888931,16.7451057  C16.5053501,60.1524048,18.7407417,81.8102341,37.903347,92.7992935c1.2762184,0.7318649,2.5469208,1.4738159,4.3657608,2.5269775  C27.4949932,95.6391449,9.991312,86.71492,9,75.3843536c1.5625,2.125,2.875,3,4.1706676,3.1655197  c-1.6081676-5.4155197-2.2712679-12.329834-1.9321251-17.7114868c0.5840893-9.2685661,5.2454453-16.7557564,12.6658401-22.0640373  c6.4231358-4.594883,10.0418911-10.1137257,7.6594925-18.4016304c5.9729671-0.0911427,7.1707973,3.9847908,10.6164761,11.6680222  c7.3930397-9.1189461,4.5929527-18.3840599,1.4823227-27.6691093C53.480175,5.0707064,63.180954,22.1285839,68.6692352,33.0507202z   M54.0020714,93.3246994c6.1286469-1.2827301,9.8646851-6.5955734,12.3549538-12.7932816  c-1.7733231,0.2474213-3.2101784,0.4478912-5.1134148,0.7134399c3.7989922-5.5184326,3.5215111-11.1514206,2.1177101-17.1765137  c-1.5338173,1.2648621-2.9149323,2.403801-3.9751816,3.2781296c-1.5632019-4.5050774-3.0974541-8.9267197-4.5153885-13.0131416  c-4.7429733,3.6675415-8.7295532,7.3142052-13.2196579,10.113102c-11.9560642,7.4527817-10.8825989,21.0403595,0.9671173,27.1696625  C45.9214287,93.3246994,51.1852646,93.9142609,54.0020714,93.3246994z"/><text x="0" y="115" fill="#000000" font-size="5px" font-weight="bold" font-family="'Helvetica Neue', Helvetica, Arial-Unicode, Arial, Sans-serif">Created by Tereza Moravcová</text><text x="0" y="120" fill="#000000" font-size="5px" font-weight="bold" font-family="'Helvetica Neue', Helvetica, Arial-Unicode, Arial, Sans-serif">from the Noun Project</text></svg>