<svg xmlns="http://www.w3.org/2000/svg" xmlns:xlink="http://www.w3.org/1999/xlink" version="1.1" x="0px" y="0px" viewBox="0 0 100 125" enable-background="new 0 0 100 100" xml:space="preserve"><path fill="#000000" d="M50,10.029c22.074,0,39.971,17.896,39.971,39.971S72.074,89.971,50,89.971  c-22.074,0-39.971-17.896-39.971-39.971S27.926,10.029,50,10.029 M42.281,42.399c1.203,0,2.298-0.833,2.525-2.038  c0.307-1.63,0.89-2.789,1.742-3.452c0.893-0.698,2.161-1.053,3.452-1.053c1.349,0,2.723,0.389,3.703,1.182  c1.1,0.898,1.239,1.618,1.239,2.144c0,0.354-0.093,0.654-0.31,0.969c-0.139,0.207-0.678,0.849-2.618,2.286  c-1.761,1.31-2.981,2.308-3.701,3.015c-1.081,1.107-1.854,2.186-2.349,3.279c-0.678,1.459-1.018,3.167-1.018,5.074l0.032,1.279  c0.049,1.344,1.166,2.405,2.528,2.405h4.547c1.374,0,2.498-1.085,2.527-2.445c0.039-1.866,0.217-2.544,0.283-2.745  c0.119-0.38,0.298-0.7,0.537-0.978c0.132-0.146,0.707-0.739,2.64-2.174c2.574-1.905,4.284-3.533,5.223-4.962  c1.064-1.598,1.605-3.374,1.605-5.282c0-3.174-1.5-6.006-4.347-8.197c-2.686-2.057-6.246-3.098-10.576-3.098  c-4.104,0-7.502,0.978-10.098,2.898c-2.715,1.996-4.364,4.877-4.901,8.561c-0.095,0.674,0.088,1.357,0.515,1.893  c0.424,0.537,1.051,0.878,1.737,0.947l4.87,0.483C42.139,42.397,42.21,42.399,42.281,42.399 M47.346,72.382h4.996  c1.456,0,2.53-1.061,2.53-2.498l-0.032-4.834c0-1.437-1.042-2.66-2.498-2.66h-4.996c-1.454,0-2.498,1.061-2.498,2.498l0.044,4.996  C44.891,71.32,45.892,72.382,47.346,72.382 M50,5.032C25.206,5.032,5.032,25.204,5.032,50S25.206,94.968,50,94.968  c24.794,0,44.968-20.172,44.968-44.968S74.794,5.032,50,5.032L50,5.032z"/><text x="0" y="115" fill="#000000" font-size="5px" font-weight="bold" font-family="'Helvetica Neue', Helvetica, Arial-Unicode, Arial, Sans-serif">Created by Jeevan Kumar</text><text x="0" y="120" fill="#000000" font-size="5px" font-weight="bold" font-family="'Helvetica Neue', Helvetica, Arial-Unicode, Arial, Sans-serif">from the Noun Project</text></svg>