<svg xmlns="http://www.w3.org/2000/svg" xmlns:xlink="http://www.w3.org/1999/xlink" version="1.1" x="0px" y="0px" viewBox="0 0 100 125" style="enable-background:new 0 0 100 100;" xml:space="preserve"><g><path d="M93.41,46.26L93.41,46.26c-0.45-0.27-4.56-2.72-10.5-4.18c-8.16-2-15.81-1.07-22.11,2.69c-0.31,0.19-0.54,0.49-0.63,0.84   c-0.09,0.35-0.04,0.72,0.15,1.04c0.39,0.65,1.23,0.86,1.88,0.48c11.9-7.1,25.55-0.78,28.84,0.95c-1.45,4.22-8.02,21.69-19.17,26.38   c-4.38,1.84-9.05,1.49-13.88-1.03c-0.67-0.35-1.5-0.09-1.85,0.58c-0.17,0.32-0.2,0.7-0.09,1.05c0.11,0.35,0.35,0.63,0.67,0.8   c3.19,1.67,6.38,2.52,9.47,2.52c2.29,0,4.56-0.47,6.75-1.39C86.83,71.12,93.71,48.77,94,47.82C94.18,47.22,93.93,46.58,93.41,46.26   z"/><path d="M70.91,68.03c0.6,0,1.19-0.02,1.74-0.07c0.36-0.03,0.7-0.2,0.93-0.48c0.24-0.28,0.35-0.64,0.32-1   c-0.07-0.75-0.74-1.3-1.48-1.25c-3.47,0.3-7.32-0.56-9.64-1.21c1.93-1.82,3.97-3.52,6.07-5.06c1.35,0.54,4,1.39,6.85,1.18   c0.37-0.02,0.7-0.19,0.94-0.47c0.24-0.28,0.36-0.63,0.33-0.99c-0.05-0.74-0.68-1.3-1.46-1.27c-1.17,0.08-2.47-0.06-3.81-0.4   c3.13-2.03,6.42-3.76,9.79-5.16c0.34-0.14,0.6-0.4,0.74-0.74c0.14-0.34,0.14-0.71,0-1.05c-0.29-0.7-1.1-1.03-1.79-0.74   c-3.52,1.47-6.95,3.28-10.22,5.39c0.26-1.19,0.83-2.78,2.03-4.59c0.2-0.31,0.27-0.67,0.2-1.03c-0.07-0.36-0.28-0.67-0.59-0.87   c-0.31-0.2-0.67-0.27-1.03-0.2c-0.36,0.07-0.67,0.28-0.87,0.59c-2.4,3.62-2.74,6.58-2.7,8.14c-2.1,1.53-4.13,3.21-6.05,5   c-0.09-2.35,0.27-5.69,2.12-9.41c0.34-0.68,0.06-1.5-0.62-1.84c-0.67-0.33-1.5-0.06-1.84,0.62c-2.97,5.98-2.55,11.03-2.17,13.1   c-1.65,1.72-3.22,3.54-4.66,5.42c-0.2-0.56-0.38-1.12-0.53-1.69c-0.2-0.73-0.95-1.16-1.68-0.96c-0.35,0.1-0.65,0.33-0.83,0.64   c-0.18,0.32-0.23,0.69-0.13,1.04c0.43,1.55,0.91,2.78,1.28,3.58c-1.16,1.69-2.26,3.46-3.27,5.28c-0.22-7.52-1.47-14.95-3.73-22.09   c1.31-1.72,4.93-7.27,4.93-15.95c0-0.75-0.61-1.37-1.37-1.37c-0.76,0-1.37,0.62-1.37,1.37c0,5.97-1.92,10.31-3.32,12.68   c-1.25-3.43-2.71-6.76-4.36-9.91c0.78-1.43,2.26-5,1.56-10.66c-0.09-0.75-0.78-1.29-1.53-1.19c-0.36,0.04-0.69,0.23-0.91,0.52   c-0.23,0.29-0.33,0.65-0.28,1.01c0.4,3.25-0.01,5.67-0.53,7.28c-2.6-4.48-5.59-8.69-8.91-12.51c-0.5-0.57-1.37-0.63-1.93-0.14   c-0.57,0.5-0.63,1.36-0.14,1.93c3.2,3.68,6.09,7.74,8.59,12.06c-1.56-0.27-3.58-0.8-5.41-1.88c-0.65-0.38-1.49-0.16-1.87,0.49   c-0.19,0.32-0.24,0.69-0.14,1.04c0.09,0.35,0.32,0.65,0.63,0.83c3.25,1.9,6.85,2.37,8.44,2.48c1.65,3.16,3.11,6.49,4.34,9.93   c-3.1-0.54-8.28-1.76-12.29-4.2c-0.65-0.4-1.49-0.19-1.88,0.46c-0.39,0.65-0.19,1.49,0.46,1.88c5.33,3.25,12.34,4.47,14.72,4.8   c2.39,7.62,3.61,15.51,3.61,23.46v1.39l-0.43-0.13c-5.28-1.55-10.28-3.89-14.89-6.96c0.29-2.06,0.74-6.76-0.36-10.86   c-0.2-0.73-0.95-1.17-1.68-0.97c-0.35,0.09-0.65,0.32-0.83,0.64c-0.18,0.32-0.23,0.69-0.14,1.04c0.77,2.87,0.64,6.25,0.45,8.35   c-1.79-1.34-3.5-2.79-5.1-4.33c0.27-1.32,0.57-3.72-0.04-6.19c-0.18-0.74-0.93-1.18-1.66-1c-0.73,0.18-1.18,0.93-1,1.66   c0.23,0.92,0.31,1.93,0.26,3.03c-2.16-2.35-4.11-4.89-5.81-7.54c-0.2-0.31-0.5-0.52-0.86-0.6c-0.36-0.08-0.72-0.01-1.03,0.18   c-0.31,0.2-0.52,0.5-0.6,0.86c-0.08,0.36-0.01,0.73,0.18,1.03c1.78,2.78,3.82,5.43,6.09,7.9c-1.26-0.1-2.58-0.44-3.93-1.04   c-0.69-0.3-1.5,0.02-1.8,0.71c-0.3,0.69,0.02,1.5,0.71,1.8c1.98,0.86,3.92,1.3,5.77,1.3c0.64,0,1.25-0.05,1.81-0.16   c1.59,1.53,3.28,2.98,5.04,4.31c-1.99,0.38-4.85,0.53-8.21-0.47c-0.35-0.1-0.72-0.06-1.04,0.11c-0.32,0.18-0.56,0.47-0.66,0.82   c-0.1,0.35-0.06,0.72,0.11,1.04c0.18,0.32,0.46,0.56,0.82,0.66c1.97,0.58,3.97,0.87,5.93,0.87c2.78,0,4.86-0.58,5.95-0.97   c1.67,1.12,3.42,2.16,5.2,3.09c-1.09,0.6-2.6,1.31-4.37,1.79c-4.84,1.33-9.27,0.44-13.16-2.62c-11.77-9.27-7.92-24.5-6.76-28.2   c3.95,0.63,20.02,3.69,25.86,12.56c2.27,3.45,2.76,7.47,1.44,11.95c-0.21,0.72,0.2,1.49,0.93,1.7c0.72,0.21,1.49-0.21,1.7-0.93   c1.56-5.29,0.96-10.08-1.78-14.23C30.84,50.23,10.22,47.65,9.34,47.55c-0.62-0.08-1.21,0.28-1.43,0.86   c-0.08,0.21-2.01,5.11-2.13,11.59c-0.15,8.65,3.1,15.84,9.39,20.79c3.2,2.52,6.78,3.8,10.64,3.8c1.64,0,3.32-0.24,5.01-0.71   c3.02-0.84,5.31-2.18,6.5-2.99c2.51,1.15,5.08,2.11,7.64,2.86l2.19,0.64c0.28,0.08,0.56,0.08,0.87-0.04l0.17-0.08l-0.15-0.34   l0.24,0.29c0.05-0.03,0.1-0.07,0.17-0.13c0.04-0.04,0.08-0.08,0.12-0.12c0.05-0.06,0.09-0.11,0.13-0.18l1.21-2.39   c2.76-5.56,6.35-10.67,10.67-15.19C62.4,66.82,66.64,68.03,70.91,68.03z"/><path d="M17.19,47.38c0.36-0.08,0.66-0.29,0.86-0.59c0.2-0.31,0.27-0.67,0.19-1.03c-2.36-11.06-1.05-23.09-0.52-26.99   c2.42-0.09,8.07-0.03,14.37,1.72c10.86,3.02,18.32,9.43,22.17,19.05c4.41,11.02-1.22,19.53-4.97,23.62   c-0.25,0.27-0.38,0.62-0.36,0.99c0.02,0.37,0.17,0.7,0.45,0.95c0.25,0.23,0.58,0.36,0.92,0.36c0.38,0,0.75-0.16,1.01-0.44   c4.18-4.56,10.46-14.07,5.49-26.49C52.68,28.2,44.37,21.04,32.77,17.84c-8.74-2.42-16.05-1.76-16.35-1.73   c-0.62,0.06-1.12,0.52-1.23,1.13c-0.11,0.62-2.57,15.3,0.38,29.09C15.72,47.07,16.45,47.54,17.19,47.38z"/></g><text x="0" y="115" fill="#000000" font-size="5px" font-weight="bold" font-family="'Helvetica Neue', Helvetica, Arial-Unicode, Arial, Sans-serif">Created by KR N</text><text x="0" y="120" fill="#000000" font-size="5px" font-weight="bold" font-family="'Helvetica Neue', Helvetica, Arial-Unicode, Arial, Sans-serif">from the Noun Project</text></svg>